# xmcd
#
# Track frame offsets:
#	150
#	9652
#	12415
#	23572
#	29262
#	42155
#	48964
#	61105
#	69882
#	76705
#	95687
#	108795
#	121427
#	129207
#	131487
#	184850
#	193630
#	200662
#	213130
#	223440
#	230375
#
# Disc length: 3429 seconds
#
# Revision: 1
# Processed by: cddbd v1.5.1PL0 Copyright (c) Steve Scherf et al.
# Submitted via: CDex 1.50Beta5
#
DISCID=160d6315
DTITLE=すぎやまこういち - トルネコの大冒険2
DYEAR=1900
DGENRE=Game
TTITLE0=オープニング
TTITLE1=名前入力
TTITLE2=トルネコの村
TTITLE3=ハイスコア
TTITLE4=ちょっと不思議の草原(トルネコのテーマ)
TTITLE5=お城
TTITLE6=からくり屋敷のダンジョン
TTITLE7=お城地下のダンジョン
TTITLE8=墓場のダンジョン
TTITLE9=火吹き山
TTITLE10=迷いの森
TTITLE11=トロ遺跡
TTITLE12=火事だ!
TTITLE13=しあわせの箱
TTITLE14=不思議のダンジョン
TTITLE15=便利なお店
TTITLE16=とんでもないぞ!
TTITLE17=モンスターハウス
TTITLE18=最後の戦い
TTITLE19=おとずれた平和な世界
TTITLE20=エンディング
EXTD=
EXTT0=
EXTT1=
EXTT2=
EXTT3=
EXTT4=
EXTT5=
EXTT6=
EXTT7=
EXTT8=
EXTT9=
EXTT10=
EXTT11=
EXTT12=
EXTT13=
EXTT14=
EXTT15=
EXTT16=
EXTT17=
EXTT18=
EXTT19=
EXTT20=
PLAYORDER=
